EBGaramond12-Regular.sfdir
StartChar: uni01C0
Encoding: 448 448 581
Width: 240
VWidth: 0
Flags: W
HStem: -19 21G<79 84> 21 24<164.665 233.841> 655 32<-1.94537 67.325> 685 20G<132 156.5>
VStem: 85 70<45.0205 642.344>
LayerCount: 3
Fore
SplineSet
85 607 m 6xe8
 85 645 41 654 21 655 c 4
 16 655 -2 658 -2 672 c 4
 -2 684 17 687 21 687 c 4xe8
 122 692 114 695 150 705 c 5
 152 705 l 6xd8
 161 705 169 695 164 687 c 4
 160 680 155 631 155 618 c 6
 155 115 l 2
 155 73 157 45 173 45 c 0
 183 45 209 46 219 48 c 0
 224 49 234 47 234 35 c 0
 234 24 225 21 220 21 c 0
 168 14 134 -1 105 -13 c 0
 101 -15 87 -19 81 -19 c 0
 77 -19 78 -18 78 -15 c 0
 78 -4 85 44 85 56 c 2
 85 607 l 6xe8
EndSplineSet
EndChar
StartChar: uni01C2
Encoding: 450 450 2095
Width: 285
VWidth: 0
Flags: HMW
LayerCount: 3
Fore
SplineSet
29 287 m 26
 266 287 l 18
 272 287 280 282 280 276 c 0
 280 275 279 274 279 273 c 8
 279 258 263 252 248 252 c 26
 19 252 l 26
 12 252 5 258 5 264 c 0
 5 273 16 287 29 287 c 26
29 400 m 26
 266 400 l 18
 272 400 280 395 280 389 c 0
 280 388 279 387 279 386 c 8
 279 371 263 365 248 365 c 26
 19 365 l 26
 12 365 5 371 5 377 c 0
 5 386 16 400 29 400 c 26
EndSplineSet
Refer: 581 448 N 1 0 0 1 22.5 0 2
EndChar
StartChar: uni01C3
Encoding: 451 451 2094
Width: 240
VWidth: 0
Flags: WO
HStem: 208 24<164.665 233.841> 655 32<-1.94537 67.325> 685 20G<132 156.5>
VStem: 85 70<232.02 642.344>
LayerCount: 3
Fore
SplineSet
85 607 m 2xd0
 85 645 41 654 21 655 c 0
 16 655 -2 658 -2 672 c 0
 -2 684 17 687 21 687 c 0xd0
 122 692 114 695 150 705 c 1
 152 705 l 2xb0
 161 705 169 695 164 687 c 0
 160 680 155 631 155 618 c 2
 155 302 l 2
 155 260 157 232 173 232 c 0
 183 232 209 233 219 235 c 0
 224 236 234 234 234 222 c 0
 234 211 225 208 220 208 c 0
 168 201 134 186 105 174 c 0
 101 172 87 168 81 168 c 0
 77 168 78 169 78 172 c 0
 78 183 85 231 85 243 c 2
 85 607 l 2xd0
EndSplineSet
Refer: 121 775 N 1 0 0 1 8 -507 2
EndChar
StartChar: uni0366
Encoding: 870 870 3424
Width: 0
VWidth: 0
Flags: WO
HStem: 489.463 20.5176<77.81 130.875> 648.652 21.9326<68.5838 123.804>
VStem: 6.99902 44.5693<523.339 633.714> 148.823 44.5674<522.483 634.755>
AnchorPoint: "top_accent" 100 550 mark 0
LayerCount: 3
Fore
SplineSet
96.1738 648.652 m 0
 63.2676 648.652 51.5684 616.814 51.5684 584.269 c 0
 51.5684 545.355 72.043 509.98 104.218 509.98 c 0
 136.392 509.98 148.823 541.11 148.823 575.071 c 0
 148.823 611.861 129.079 648.652 96.1738 648.652 c 0
104.154 670.585 m 0
 150.931 670.585 193.391 631.672 193.391 585.684 c 0
 193.391 536.158 160.287 489.463 95.5176 489.463 c 0
 47.3008 489.463 6.99902 523.423 6.99902 574.363 c 0
 6.99902 626.72 50.8984 670.585 104.154 670.585 c 0
EndSplineSet
EndChar
StartChar: uni0368
Encoding: 872 872 3426
Width: 0
VWidth: 0
Flags: WO
HStem: 490 29.7158<80.2916 157.662> 648.482 20.5176<83.2675 142.495>
VStem: 21.1182 37.5625<536.616 629.259>
AnchorPoint: "top_accent" 100 550 mark 0
LayerCount: 3
Fore
SplineSet
21.1182 573.486 m 8
 21.1182 627.022 66.1748 669 119.711 669 c 16
 139.861 669 161.452 664.048 175.844 648.482 c 0
 177.283 646.359 181.004 642.942 181.004 640.822 c 0
 181.004 631.822 170.648 620.597 161.292 620.597 c 0
 156.975 620.597 152.096 625.842 150.656 627.965 c 0
 141.301 642.822 131.946 648.482 108.916 648.482 c 0
 80.5664 648.482 58.6807 617.402 58.6807 589.052 c 0
 58.6807 548.012 83.3721 519.716 115.271 519.716 c 0
 134.702 519.716 152.37 527.464 162.171 538.818 c 0
 162.831 539.583 164.33 540.233 165.77 540.233 c 0
 170.807 540.233 178.723 533.865 178.723 529.62 c 0
 178.723 514.056 144.301 490 104 490 c 0
 56 490 21.1182 529.62 21.1182 573.486 c 8
EndSplineSet
EndChar
StartChar: uni0369
Encoding: 873 873 3427
Width: 0
VWidth: 0
Flags: WO
HStem: 490.016 19.3955<68.5913 123.574> 650.328 21.5176<72.7875 129.761>
VStem: 4.63965 43.8984<516.946 638.457> 121.646 63.6279<740.511 781.684> 146.412 38.8623<521.422 642.047 667.19 758.809>
AnchorPoint: "top_accent" 100 550 mark 0
LayerCount: 3
Fore
SplineSet
156.612 487.894 m 0xe8
 150.135 487.894 151.45 512.656 149.291 512.656 c 0
 148.571 512.656 123.948 490.016 92.998 490.016 c 0
 37.998 490.016 4.63965 527.514 4.63965 570.672 c 0
 4.63965 630.811 39.5879 671.846 112.588 671.846 c 0
 132.738 671.846 139.638 667.186 142.517 667.186 c 0
 144.676 667.186 145.693 673.016 145.693 680.798 c 2
 145.693 722.861 l 2
 145.693 740.55 140.357 755.869 128.843 757.992 c 0
 125.244 758.699 121.646 764.944 121.646 769.189 c 0xf0
 121.646 772.728 124.822 777.265 128.421 777.973 c 0
 161.524 785.755 180.236 794.952 187.433 794.952 c 0
 189.593 794.952 191.312 791.245 192.031 789.83 c 1
 192.031 784.877 185.274 766.02 185.274 727.814 c 2
 185.274 559.691 l 2
 185.274 525.731 188.153 518.363 196.789 518.363 c 0
 206.145 518.363 213.061 519.316 218.817 519.316 c 0
 220.977 519.316 223.416 514.071 223.416 509.826 c 0
 223.416 504.873 222.085 500.04 219.817 499.921 c 0
 196.55 498.701 163.089 487.894 156.612 487.894 c 0xe8
98.1943 650.328 m 0
 82.9375 650.328 48.5381 636.284 48.5381 581.284 c 0
 48.5381 516.194 77.4844 509.411 97.6338 509.411 c 0
 113.467 509.411 146.412 527.269 146.412 555.569 c 2
 146.412 606.047 l 2xe8
 146.412 630.103 126.98 650.328 98.1943 650.328 c 0
EndSplineSet
EndChar
StartChar: uni036D
Encoding: 877 877 3429
Width: 0
VWidth: 0
Flags: W
HStem: 490 28.1133<96.3773 148.947> 633.497 29.5088<95.4629 155.797>
VStem: 53.3281 39.7373<518.376 633.466>
AnchorPoint: "top_accent" 100 550 mark 0
LayerCount: 3
Fore
SplineSet
156.928 513.719 m 0
 156.928 502.557 128.83 490 104 490 c 0
 77 490 53.3281 505.172 53.3281 530.461 c 26
 53.3281 626.219 l 2
 53.3281 633.893 46.9424 632.8 37.0078 633.497 c 0
 34.8789 634.194 31.041 645.658 31.041 651.938 c 0
 31.041 654.03 32.498 657.865 33.4609 658.123 c 0
 46.9844 661.746 64.6123 689.127 68.3584 698.398 c 0
 69.7705 701.894 82.5508 705.374 89.6455 705.374 c 0
 93.9033 705.374 95.3193 702.584 95.3232 701.887 c 10
 95.4854 669.587 l 18
 95.502 666.099 99.7422 663.006 105.418 663.006 c 10
 151.251 663.006 l 18
 153.38 663.006 156.219 659.913 156.219 653.635 c 0
 156.219 647.356 153.38 633.497 151.251 633.497 c 10
 111.515 633.497 l 18
 94.4854 633.497 93.0654 629.8 93.0654 624.219 c 0
 93.0654 596.314 93.0654 578.644 93.0654 549.506 c 16
 93.0654 532.764 99.5801 518.113 115.9 518.113 c 0
 136.479 518.113 139.645 526.651 147.961 528.88 c 0
 151.371 529.794 156.928 518.602 156.928 513.719 c 0
EndSplineSet
EndChar
StartChar: uni1D49
Encoding: 7497 7497 710
Width: 232
VWidth: 7
Flags: HMW
LayerCount: 3
Fore
SplineSet
9 397 m 8
 9 471 71 531 145 531 c 16
 185 531 225 507 225 467 c 8
 225 451 224 433 214 428 c 0
 205 424 185 422 167 422 c 18
 72 422 l 2
 64 422 63 406 63 396 c 8
 63 354 96 320 138 320 c 16
 166 320 184 330 204 350 c 16
 205 351 206 351 208 351 c 0
 216 351 229 339 226 334 c 0
 208 306 168 278 126 278 c 8
 61 278 9 332 9 397 c 8
70 455 m 0
 70 451 74 451 77 451 c 2
 118 451 l 10
 137 451 153 452 166 456 c 8
 174 458 174 471 174 476 c 0
 174 498 154 504 134 504 c 0
 98 504 70 474 70 455 c 0
EndSplineSet
EndChar
StartChar: uni1D4A
Encoding: 7498 7498 2307
Width: 232
VWidth: 0
Flags: HMW
LayerCount: 3
Fore
SplineSet
225 412 m 0
 225 319 163 278 90 278 c 2
 88 278 l 2
 48 278 9 304 9 342 c 0
 9 356 10 376 20 381 c 0
 29 385 49 385 67 385 c 18
 162 387 l 2
 170 387 171 393 171 403 c 2
 171 413 l 1
 170 444 140 488 90 489 c 0
 68 489 54 480 34 464 c 0
 33 463 32 463 30 463 c 0
 22 463 9 475 12 480 c 0
 30 508 59 531 108 531 c 0
 166 531 225 484 225 412 c 0
160 349 m 0
 161 351 161 353 161 354 c 0
 161 358 157 358 154 358 c 2
 116 358 l 10
 97 358 81 357 68 353 c 8
 60 351 60 338 60 333 c 0
 60 311 80 305 100 305 c 0
 136 305 151 326 160 349 c 0
EndSplineSet
EndChar
StartChar: uni1D4D
Encoding: 7501 7501 711
Width: 277
VWidth: 0
Flags: HMW
LayerCount: 3
Fore
SplineSet
133 141 m 0
 184 141 212 182 212 216 c 0
 212 238 192 246 171 250 c 0
 155 253 126 257 111 258 c 1
 109 258 l 2
 92 258 81 249 73 239 c 0
 63 228 55 213 55 195 c 0
 55 153 80 141 133 141 c 0
113 505 m 8
 82 505 62 472 62 443 c 8
 62 408 80 371 117 371 c 0
 149 371 167 401 167 440 c 8
 167 473 149 505 113 505 c 8
121 531 m 8
 157 531 185 512 225 512 c 2
 259 512 l 1
 263 511 265 506 265 501 c 0
 265 496 263 491 259 491 c 0
 222 491 231 487 222 486 c 1
 219 479 220 467 220 458 c 0
 220 400 172 345 111 345 c 16
 97 345 88 344 82 348 c 1
 68 338 66 337 66 329 c 0
 66 312 99 305 120 303 c 0
 203 296 261 285 261 235 c 0
 261 169 196 107 117 107 c 8
 63 107 -4 123 -4 176 c 0
 -4 212 42 232 61 262 c 1
 39 266 19 280 19 308 c 0
 19 317 21 320 29 327 c 0
 40 337 47 344 57 358 c 1
 52 359 8 385 8 436 c 0
 8 496 64 531 121 531 c 8
EndSplineSet
EndChar
StartChar: uni1D4E
Encoding: 7502 7502 3365
Width: 170
VWidth: 0
Flags: W
HStem: 137 69<54.1094 120.906> 288 22<117.62 145.998>
VStem: 51 73<140.678 202.344> 55 54<312.114 474.712>
LayerCount: 3
Fore
SplineSet
124 172 m 0xe0
 124 154 106 137 88 137 c 0
 69 137 51 154 51 172 c 0
 51 189 69 206 88 206 c 0
 106 206 124 189 124 172 c 0xe0
109 347 m 2xd0
 109 325 118 314 139 310 c 0
 143 309 146 304 146 299 c 0
 146 294 143 289 139 288 c 0
 106 281 85 271 64 264 c 1
 62 264 l 2
 58 264 51 266 51 268 c 0xe0
 51 275 55 289 55 343 c 2
 55 450 l 2
 55 475 19 478 14 480 c 0
 11 481 8 489 8 493 c 0
 8 497 11.0218 506.639 14 507 c 0
 80 515 77 526 100 532 c 1
 106.475 532 120.258 523.429 117 518 c 0
 114 514 109 486 109 476 c 2
 109 347 l 2xd0
EndSplineSet
Validated: 1
EndChar
StartChar: uni1D4F
Encoding: 7503 7503 712
Width: 326
VWidth: 0
Flags: HMW
LayerCount: 3
Fore
SplineSet
104 704 m 2
 107 704 108 701 108 696 c 0
 108 683 102 656 102 619 c 2
 102 431 l 2
 102 428 103 427 105 427 c 0
 111 427 122 435 128 440 c 0
 163 468 175 478 186 488 c 0
 190 491 195 502 184 504 c 0
 182 505 171 511 171 516 c 0
 171 525 182 526 185 526 c 10
 277 526 l 2
 279 526 284 519 284 517 c 0
 284 512 279 505 273 504 c 0
 257 501 240 496 228 489 c 0
 220 484 185 459 154 434 c 0
 151 432 150 427 156 420 c 0
 189 381 228 343 242 332 c 1
 256 319 281 308 294 304 c 0
 301 302 309 295 309 289 c 0
 309 283 297 280 294 280 c 2
 177 280 l 2
 174 280 162 283 162 289 c 0
 162 303 191 305 191 317 c 0
 191 319 190 323 187 326 c 2
 108 405 l 2
 106 407 102 406 102 401 c 0
 102 390 101 379 101 367 c 0
 101 355 102 343 102 329 c 0
 102 313 108 308 121 304 c 0
 128 302 136 295 136 289 c 0
 136 283 124 280 121 280 c 2
 24 280 l 2
 21 280 9 283 9 289 c 0
 9 295 17 302 24 304 c 0
 37 308 48 313 48 329 c 2
 48 612 l 2
 48 621 44 652 23 656 c 8
 14 658 13 678 22 680 c 16
 55 687 82 697 103 704 c 1
 104 704 l 2
EndSplineSet
EndChar
StartChar: uni1D56
Encoding: 7510 7510 715
Width: 321
VWidth: 0
Flags: HMW
LayerCount: 3
Fore
SplineSet
46 165 m 2
 46 447 l 2
 46 456 37 487 16 491 c 8
 7 493 7 512 16 514 c 16
 49 521 73 530 94 538 c 1
 96 538 l 2
 100 538 107 536 107 532 c 0
 107 524 104 506 104 497 c 0
 104 494 104 493 105 492 c 1
 117 503 158 531 199 531 c 0
 266 531 306 475 306 419 c 0
 306 347 241 281 159 281 c 0
 141 281 116 300 103 300 c 0
 101 300 101 273 101 269 c 2
 101 165 l 2
 101 149 112 146 125 142 c 0
 132 140 140 133 140 127 c 0
 140 121 128 118 125 118 c 2
 18 118 l 2
 15 118 3 121 3 127 c 0
 3 133 11 140 18 142 c 0
 31 146 46 149 46 165 c 2
101 412 m 0
 101 351 101 307 169 307 c 0
 194 307 245 345 245 405 c 0
 245 472 203 497 175 497 c 0
 153 497 136 487 120 476 c 0
 110 469 102 458 101 433 c 0
 101 426 101 419 101 412 c 0
EndSplineSet
EndChar
StartChar: uni1D5A
Encoding: 7514 7514 3366
Width: 496
VWidth: 0
Flags: W
HStem: 272 39<111.877 186.523 284.183 357.819> 293 24<453.341 495.796> 491 27<341.019 379.474>
VStem: 43 56<320.81 486.815> 216 56<327.241 486.815> 388 54<327.24 485.457>
LayerCount: 3
Fore
SplineSet
442 358 m 2xbc
 442 332.027 441.646 315 453 315 c 1
 460 316 485 316 491 317 c 0
 494 318 496 313 496 309 c 0
 496 305 495 293 492 293 c 0x7c
 458 289 429 279 410 272 c 0
 408 271 398 268 394 268 c 1
 394 268 391 295 391 307 c 0
 391 311 391 313 390 314 c 1
 372 299 338 272 287 272 c 0
 256 272 237 284 227 309 c 0
 223 319 218 318 208 307 c 0
 193 291 155 272 114 272 c 0
 72 272 43 298 43 345 c 2
 43 457 l 2
 43 474 32 484 12 491 c 0
 10 492 7 500 7 504 c 0
 7 509 10 518 13 518 c 0
 48 519 64 524 89 529 c 0
 95 530 104 526 103 520 c 0
 100 501 99 484 99 466 c 2
 99 368 l 10
 99 339 119 311 147 311 c 0
 169 311 187 315 203 327 c 0
 211 332 216 346 216 370 c 2
 216 457 l 2
 216 474 205 484 185 491 c 0
 183 492 180 500 180 504 c 0
 180 509 183 518 186 518 c 0
 221 519 237 524 262 529 c 0
 268 530 277 526 276 520 c 0
 273 501 272 484 272 466 c 2
 272 368 l 10
 272 339 291 311 319 311 c 0
 341 311 359 315 375 327 c 0
 383 332 388 345 388 370 c 2
 388 461 l 6
 388 486 352 489 347 491 c 4
 344 492 341 500 341 504 c 4
 341 508 344 518 347 518 c 4
 413 521 410 526 433 532 c 5
 439.475 532 453.258 523.429 450 518 c 4
 447 514 442 486 442 476 c 6
 442 358 l 2xbc
EndSplineSet
Validated: 33
EndChar
StartChar: uni1DA3
Encoding: 7587 7587 3367
Width: 332
VWidth: 0
Flags: W
HStem: 279 36<120.191 201.903> 498 27<182.019 220.474>
VStem: 51 54<327.274 493.817> 229 54<153.465 309.853 331.467 492.457>
LayerCount: 3
Fore
SplineSet
283 195 m 2
 283 174 290 156 312 151 c 8
 320 149 321 131 313 129 c 16
 280 122 257 113 236 105 c 1
 235 105 l 2
 231 105 225 107 223 109 c 1
 223 116 229 126 229 191 c 2
 229 288 l 2
 229 295 227 307 224 310 c 1
 204 296 171 279 130 279 c 0
 88 279 51 305 51 351 c 2
 51 464 l 2
 51 481 40 491 20 498 c 0
 18 499 15 507 15 511 c 0
 15 516 18 525 20.998 525.002 c 0
 55.0771 526.002 70.6562 531.002 94.999 536.002 c 0
 100.999 537.002 109.999 533.002 108.999 527.002 c 0
 105.999 508.002 104.999 491.002 104.999 473.002 c 2
 105 369 l 10
 105 339 132 315 160 315 c 0
 176 315 199 322 212 331 c 0
 225 341 229 349 229 374 c 2
 229 468 l 2
 229 493 193 496 188 498 c 0
 185 499 182 507 182 511 c 0
 182 515 185 525 188 525 c 0
 254 528 251 533 274 539 c 1
 280.475 539 294.258 530.429 291 525 c 0
 288 521 283 493 283 483 c 2
 283 195 l 2
EndSplineSet
EndChar
StartChar: uni1DA6
Encoding: 7590 7590 3363
Width: 261
VWidth: 280
Flags: W
HStem: 277 17<20.2473 69.1479 166.852 215.753> 502 19<27.5669 77.634 159.644 210.433>
VStem: 92 52<302.521 495.451>
LayerCount: 3
Fore
SplineSet
92 459 m 2
 92 487 80 497 48 502 c 0
 33 504 27 509 27 514 c 0
 27 519 35 521 46 521 c 0
 81 521 92.3496 519 122 519 c 24
 149.312 519 157 521 192 521 c 0
 203 521 211 519 211 514 c 0
 211 509 205 504 190 502 c 0
 158 497 144 487 144 459 c 2
 144 339 l 2
 144 311 163 299 195 294 c 0
 210 292 216 289 216 284 c 0
 216 279 209 277 198 277 c 0
 163 277 151.663 280 122 280 c 24
 89.2188 280 73 277 38 277 c 0
 27 277 20 279 20 284 c 0
 20 289 26 292 41 294 c 0
 73 299 92 311 92 339 c 2
 92 459 l 2
EndSplineSet
Validated: 1
EndChar
StartChar: uni2317
Encoding: 8983 8983 3419
Width: 510
VWidth: 0
Flags: WO
HStem: 152.658 59.5039<-16.4775 473.655> 437.838 59.5039<34.376 524.064>
LayerCount: 3
Fore
SplineSet
-6 152.658 m 2
 -13.0088 152.658 -20 158.352 -20 165.352 c 0
 -20 175.352 -17 212.162 4 212.162 c 2
 467 212.162 l 2
 474.009 212.162 480 206.52 480 199.52 c 0
 480 189.52 471 152.658 449 152.658 c 2
 -6 152.658 l 2
44.8535 437.838 m 2
 37.8447 437.838 30.8535 443.531 30.8535 450.531 c 0
 30.8535 460.531 33.8535 497.342 54.8535 497.342 c 2
 517.854 497.342 l 2
 524.862 497.342 530.854 492.699 530.854 485.699 c 0
 530.854 475.699 521.854 437.838 499.854 437.838 c 2
 44.8535 437.838 l 2
81.7021 93.7969 m 2
 79.373 80.8301 65.7021 78.7969 52.7021 78.7969 c 0
 46.7021 78.7969 42.3018 84.7969 41.9014 90.7969 c 0
 41.835 91.7969 41.5254 92.8105 41.7021 93.7969 c 2
 124.636 554.203 l 2
 127.145 568.131 142.502 571.203 156.502 571.203 c 0
 161.502 571.203 164.902 565.203 165.302 559.203 c 0
 165.436 557.203 164.991 556.176 164.636 554.203 c 2
 81.7021 93.7969 l 2
385.569 93.7969 m 2
 383.24 80.8301 369.569 78.7969 356.569 78.7969 c 0
 350.569 78.7969 346.169 84.7969 345.77 90.7969 c 0
 345.702 91.7969 345.393 92.8105 345.569 93.7969 c 2
 428.503 554.203 l 2
 431.012 568.131 446.369 571.203 460.369 571.203 c 0
 465.369 571.203 468.77 565.203 469.17 559.203 c 0
 469.303 557.203 468.858 556.176 468.503 554.203 c 2
 385.569 93.7969 l 2
EndSplineSet
EndChar
StartChar: uni2318
Encoding: 8984 8984 3423
Width: 719
VWidth: 0
Flags: WO
HStem: -4.99805 29<131.641 202.407 527.716 597.091> 217.002 34<118.729 216.386 295.842 422.052 518.703 591.827> 399.004 31.9961<155.971 205.669 296.478 420.005 509.037 599.381> 624 31<120.462 192.947 515.198 589.042>
VStem: 33 63<52.5264 188.262 458.612 592.154> 224 68<54.4972 213.865 255.123 386.671 435.967 598.495> 425 77.0088<263.059 394.606> 427 68<50.2346 211.713 435.143 591.811> 623 63<54.0552 188.538 457.998 594.622>
LayerCount: 3
Fore
SplineSet
157 624 m 0xfc80
 112 624 96 579 96 533 c 0
 96 478 124 431 168 431 c 0
 224 431 224 432 224 520 c 0
 224 572 202 624 157 624 c 0xfc80
157 217.002 m 0
 112 217.002 96 175.002 96 129.002 c 0
 96 74.002 124 24.002 168 24.002 c 0
 212 24.002 224 68.002 224 116.002 c 0
 224 217.002 224 217.002 157 217.002 c 0
427 519 m 2xfd80
 427 593 488 655 562 655 c 0
 627 655 686 600 686 535 c 0
 686 465 640 399 550 399 c 0
 515 399 501.992 384.001 502 354.001 c 2
 502.009 321.994 l 2xfe80
 502.009 261.994 535 251.002 562 251.002 c 0
 627 251.002 686 196.002 686 131.002 c 0
 686 61.002 640 -4.99805 550 -4.99805 c 0
 483 -4.99805 427.001 43.002 427 115.002 c 2
 426.999 167.998 l 2
 426.999 185.998 424.999 207.998 408.999 210.998 c 0
 389.999 214.998 366.001 215.998 348.001 215.998 c 0
 297.001 215.998 292.002 210.998 292.001 169.998 c 2
 292 131.002 l 2
 291.998 61.002 246 -4.99805 156 -4.99805 c 0
 89 -4.99805 33 43.002 33 115.002 c 0
 33 189.002 94 250.994 168 251.002 c 2
 168 251.002 103.997 251.003 176.997 251.003 c 0
 212.997 251.003 216.997 260.003 217.997 278.003 c 0
 218.997 308.003 218.004 334.004 217.004 356.004 c 0
 216.004 367.004 214.004 380.004 206.004 387.004 c 0
 199.004 394.004 183.004 399.004 167.004 399.004 c 0
 116.004 399.004 156 399 156 399 c 2
 89 398.977 33 447 33 519 c 0
 33 593 94 655 168 655 c 0
 233 655 292 600 292 535 c 2
 292 535 292 550 292 470 c 0
 292 437 302 435 335 435 c 0
 427 435 420 435 420 435 c 2
 425 435 427 438 427 447 c 2
 427 519 l 2xfd80
551 624 m 0
 506 624 495 579 495 533 c 0xfd80
 495 431 495 431 562 431 c 0
 606 431 623 472 623 520 c 0
 623 572 596 624 551 624 c 0
551 217.002 m 0
 495 217.002 495 217.002 495 129.002 c 0
 495 74.002 518 24.002 562 24.002 c 0
 606 24.002 623 68.002 623 116.002 c 0
 623 168.002 596 217.002 551 217.002 c 0
328 395.001 m 2
 305 395.001 294 392.001 294 369.001 c 2
 294 277.001 l 2
 294 265.001 302 255.001 312 255.001 c 2
 312 255.001 380 254.001 401 255.001 c 0
 414 256.001 425 263.001 425 280.001 c 0
 425 341.001 426 349.001 425 373.001 c 0xfe80
 425 384.001 424 395.001 415 395.001 c 0
 373 395.001 328 395.001 328 395.001 c 2
EndSplineSet
EndChar
StartChar: uni2423
Encoding: 9251 9251 3387
Width: 200
VWidth: 0
Flags: W
HStem: -182 142<3.80342 14.5411>
VStem: -14 25<-86.6785 -40.084>
LayerCount: 3
Fore
SplineSet
21.75 -182 m 2
 14.75 -182 4.75 -180 3.75 -173 c 0
 -3.25 -135 -14 -82 -14 -55 c 0
 -14 -43 -6 -40 0 -40 c 0
 7 -40 9 -43 11 -50 c 0
 18 -72 24.0002 -95.0047 33 -105 c 0
 52.0343 -126.14 97.2796 -130.728 104.485 -131.724 c 1
 121.997 -130.361 128.345 -126.056 144 -114 c 0
 162.064 -100.089 178 -68 186 -51 c 0
 190 -43 193.357 -40.0508 200 -41 c 0
 207 -42 213 -44 213 -52 c 0
 213 -70 200.302 -139 193.302 -165 c 0
 191.302 -174 187.302 -182 179.302 -182 c 2
 21.75 -182 l 2
EndSplineSet
Validated: 1
EndChar
StartChar: uni2689
Encoding: 9865 9865 3418
Width: 500
VWidth: 0
Flags: W
HStem: 297.5 55<28.9482 471.052>
LayerCount: 3
Fore
SplineSet
128.75 114.989 m 0
 109.697 125.989 135.515 171.705 230.515 336.25 c 0
 325.515 500.795 352.197 546.011 371.25 535.011 c 0
 390.303 524.011 364.485 478.295 269.485 313.75 c 0
 174.485 149.205 147.803 103.989 128.75 114.989 c 0
131.25 530.681 m 0
 156.841 545.456 185.784 501.225 278.146 341.25 c 0
 370.507 181.275 390.401 131.819 368.75 119.319 c 0
 343.159 104.544 314.216 148.775 221.854 308.75 c 0
 129.493 468.725 109.599 518.181 131.25 530.681 c 0
25 325 m 0
 25 350 75 352.5 250 352.5 c 0
 425 352.5 475 350 475 325 c 0
 475 300 425 297.5 250 297.5 c 0
 75 297.5 25 300 25 325 c 0
EndSplineSet
EndChar
StartChar: uniA74E
Encoding: 42830 42830 3439
Width: 1229
VWidth: 0
Flags: WO
HStem: -14 39<294.762 452.654 809.165 968.561> 625 39<273.126 434.373 786.827 949.007>
VStem: 45 97<211.767 451.07> 571 87<215.661 456.523> 1087 97<203.352 459.232>
CounterMasks: 1 38
LayerCount: 3
Fore
SplineSet
618.91 144.516 m 0
 616.338 149.477 614.508 149.1 611.771 143.388 c 0
 566.379 51.0361 482.075 -14 356.312 -14 c 0
 192.463 -14 45 130 45 320 c 0
 45 501 157.661 664 365.019 664 c 0
 467.174 664 555.198 610.905 606.402 521.808 c 0
 609.643 516.167 612.702 508.883 615.702 508.883 c 0
 617.702 508.883 621.724 516.337 625.002 522.093 c 0
 673.121 606.596 757.965 664 881.019 664 c 0
 1042.09 664 1184 532 1184 335 c 0
 1184 155 1075.04 -14 872.312 -14 c 0
 764.722 -14 671.009 48.0811 618.91 144.516 c 0
350.028 625 m 0
 217.477 625 142 490 142 350 c 0
 142 179 236.69 25 369.241 25 c 0
 503.584 25 571 134 571 305 c 0
 571 495 493.326 625 350.028 625 c 0
866.028 625 m 0
 733.477 625 658 490 658 350 c 0
 658 179 752.69 25 885.241 25 c 0
 1019.58 25 1087 134 1087 305 c 0
 1087 495 1009.33 625 866.028 625 c 0
EndSplineSet
EndChar
StartChar: uniA772
Encoding: 42866 42866 3441
Width: 451
VWidth: 0
Flags: W
HStem: -5 40<166.438 381.39> -3 27<20.0556 73.9702> 2 33<169.152 379.553> 685 20G<155.5 157.5>
VStem: 85 70<45.5156 627.687>
LayerCount: 3
Fore
SplineSet
120 2 m 0x38
 85 2 78 -3 39 -3 c 0
 32 -3 19 -2 19 6 c 0
 19 16 31 20 42 24 c 0x58
 62 30 85 35 85 62 c 2
 85 566 l 2
 85 605 72 632 39 639 c 0
 34 640 31 646 31 652 c 0
 31 658 34 663 38 664 c 0
 89 676 122 692 154 704 c 0
 155 704 155 705 156 705 c 0
 159 705 162 701 162 698 c 0
 162 686 155 652 155 562 c 2
 155 102 l 2
 155 51 176 35 221 35 c 2
 306 35 l 2
 356 35 369 43 382 53 c 0
 400 67 414.613 95.4277 421 109 c 0
 424.807 117.089 428.357 119.949 435 119 c 16
 442 118 448 116 448 108 c 0
 448 90 441 38 434 12 c 0
 432 3 428 -5 420 -5 c 8x98
 302.968 -5 195 2 120 2 c 0x38
159.268 -78.5176 m 10
 298.1 176.464 l 18
 303.02 185.449 311.274 190.804 322.719 190.804 c 0
 333.229 190.804 343.936 174.757 338.648 165.336 c 10
 199.005 -90.8047 l 18
 189.803 -107.476 183.664 -117.118 169.321 -117.118 c 0
 156.091 -117.118 147.625 -99.8721 159.268 -78.5176 c 10
EndSplineSet
EndChar
StartChar: uniA773
Encoding: 42867 42867 3442
Width: 981
VWidth: 0
Flags: W
HStem: -5 40<700.438 915.391> -3 27<24.9975 78.9702 171.03 225.003 288.056 342.563 435.843 491.003 554.056 607.97> 2 33<703.152 913.553> 349 25<43.0088 74.2415> 367 47<229.676 347 496.927 621.5> 410 20G<144 162.5>
VStem: 90 70<31.1488 335.415> 354 70<31.541 334.103> 619 70<45.5156 332.312>
LayerCount: 3
Fore
SplineSet
573 -3 m 0x4380
 566 -3 553 -2 553 6 c 0
 553 16 565 20 576 24 c 0
 596 30 619 35 619 62 c 2
 619 272 l 10
 619 320 582 367 539 367 c 0
 505 367 477 360 452 340 c 0
 440 331 424 308 424 268 c 2
 424 62 l 2
 424 35 449 30 469 24 c 0
 480 20 492 16 492 6 c 0
 492 -2 480 -3 472 -3 c 0x4b80
 432 -3 425 2 390 2 c 0x2380
 355 2 347 -3 307 -3 c 0
 300 -3 287 -2 287 6 c 0
 287 16 299 20 310 24 c 0
 330 30 354 35 354 62 c 2
 354 272 l 10
 354 320 317 367 274 367 c 0
 240 367 212 360 187 340 c 0
 175 331 160 309 160 268 c 2
 160 62 l 2
 160 35 183 30 203 24 c 0
 214 20 226 16 226 6 c 0
 226 -2 214 -3 206 -3 c 0x4b80
 166 -3 160 2 125 2 c 0x2380
 90 2 84 -3 44 -3 c 0
 36 -3 24 -2 24 6 c 0
 24 16 36 20 47 24 c 0
 67 30 90 35 90 62 c 2
 90 277 l 2
 90 313 85 342 51 349 c 0
 46 350 43 356 43 362 c 0
 43 368 46 373 50 374 c 0
 102 386 127 407 161 430 c 1x5780
 164 430 168 427 168 423 c 0
 168 414 163 378 163 359 c 0
 163 353 163.586 348.414 165 347 c 1
 192.06 372.234 244 414 323 414 c 0
 371 414 398.296 395.306 416 354 c 0
 422.303 339.294 426.716 340.95 445 358 c 0
 470.597 381.87 524 414 589 414 c 0
 654 414 689 345 689 275 c 2
 689 102 l 2
 689 51 710 35 755 35 c 2
 840 35 l 2
 890 35 903 43 916 53 c 0
 934 67 948.613 95.4277 955 109 c 0
 958.807 117.089 962.357 119.949 969 119 c 16
 976 118 982 116 982 108 c 0
 982 90 975 38 968 12 c 0
 966 3 962 -5 954 -5 c 8x8b80
 836.968 -5 729 2 654 2 c 0x2380
 619 2 613 -3 573 -3 c 0x4380
693.268 -78.5176 m 10
 832.1 176.464 l 18
 837.02 185.449 845.274 190.804 856.719 190.804 c 0
 867.229 190.804 877.936 174.757 872.648 165.336 c 10
 733.005 -90.8047 l 18
 723.803 -107.476 717.664 -117.118 703.321 -117.118 c 0
 690.091 -117.118 681.625 -99.8721 693.268 -78.5176 c 10
EndSplineSet
EndChar
StartChar: uniA774
Encoding: 42868 42868 3443
Width: 731
VWidth: 0
Flags: W
HStem: -5 40<450.438 665.391> -3 27<24.9975 78.9702 171.03 225.003 304.056 357.97> 2 33<453.152 663.553> 349 25<43.0088 74.2725> 366 48<228.805 338.812> 410 20G<144 162.5>
VStem: 90 70<31.1488 335.415> 369 70<45.5156 335.799>
LayerCount: 3
Fore
SplineSet
323 -3 m 0x43
 316 -3 303 -2 303 6 c 0
 303 16 315 20 326 24 c 0
 346 30 369 35 369 62 c 2
 369 272 l 2
 369 330 333 365 279 366 c 0
 245 366 212 360 187 340 c 0
 175 331 160 309 160 268 c 2
 160 62 l 2
 160 35 183 30 203 24 c 0
 214 20 226 16 226 6 c 0
 226 -2 214 -3 206 -3 c 0x4b
 166 -3 160 2 125 2 c 0x23
 90 2 84 -3 44 -3 c 0
 36 -3 24 -2 24 6 c 0
 24 16 36 20 47 24 c 0
 67 30 90 35 90 62 c 2
 90 277 l 2
 90.167 313 85 342 51 349 c 0
 46 350 43 356 43 362 c 0
 43 368 46 373 50 374 c 0
 102 386 127 407 161 430 c 1x57
 164 430 168 427 168 423 c 0
 168 414 163 378 163 359 c 0
 163 353 163.586 348.414 165 347 c 1
 211.5 391.5 263 414 326 414 c 0
 391 414 439 353 439 275 c 2
 439 102 l 2
 439 51 460 35 505 35 c 2
 590 35 l 2
 640 35 653 43 666 53 c 0
 684 67 698.613 95.4277 705 109 c 0
 708.807 117.089 712.357 119.949 719 119 c 16
 726 118 732 116 732 108 c 0
 732 90 725 38 718 12 c 0
 716 3 712 -5 704 -5 c 8x8b
 586.968 -5 479 2 404 2 c 0x23
 369 2 363 -3 323 -3 c 0x43
443.268 -78.5176 m 10
 582.1 176.464 l 18
 587.02 185.449 595.274 190.804 606.719 190.804 c 0
 617.229 190.804 627.936 174.757 622.648 165.336 c 10
 483.005 -90.8047 l 18
 473.803 -107.476 467.664 -117.118 453.321 -117.118 c 0
 440.091 -117.118 431.625 -99.8721 443.268 -78.5176 c 10
EndSplineSet
EndChar
StartChar: uniA775
Encoding: 42869 42869 3444
Width: 425
VWidth: 0
Flags: W
HStem: -3 27<30.0556 80.5886 180.901 235.944> 349 25<39.0145 72.2253> 366 48<220.048 324.173> 410 20G<160.5 162.5>
VStem: 39 125<347.525 398.3> 90 70<36.7083 329.611>
LayerCount: 3
Fore
SplineSet
241.776 262.337 m 10x80
 334.222 537.553 l 18
 337.329 546.733 345.962 556.112 357.868 556.112 c 0
 367.868 556.112 379.443 543.219 376.087 533.635 c 10
 283.043 257.138 l 18
 276.907 239.216 271.64 225.844 255.838 225.844 c 0
 243.938 225.844 234.528 240.799 241.776 262.337 c 10x80
268 366 m 0xa8
 206 366 160 331 160 264 c 6
 160 67 l 1
 161 40 194 30 214 24 c 0
 225 20 237 16 237 6 c 0
 237 -2 224 -3 217 -3 c 0
 177 -3 165 2 130 2 c 0
 95 2 89 -3 49 -3 c 0
 42 -3 29 -2 29 6 c 0
 29 16 41 20 52 24 c 0
 72 30 89 35 90 62 c 1
 90 277 l 2xa4
 90 313 82 342 49 349 c 0
 44 350 39 356 39 362 c 0
 39 368 44 373 48 374 c 0
 99 386 132 413 159 429 c 0
 160 429 160 430 161 430 c 0xd8
 164 430 166 426 167 423 c 1
 167 416 166 380 164 348 c 0
 164 346 164 346 165 346 c 0
 169 346 182 365 189 371 c 0
 220 399 265 414 310 414 c 0
 359 414 420 384 420 366 c 0
 420 346 401 314 381 314 c 0
 359 314 345 366 268 366 c 0xa8
EndSplineSet
EndChar
StartChar: uniA777
Encoding: 42871 42871 3445
Width: 420
VWidth: 0
Flags: WO
HStem: -14 55<175.024 262.227> 352 48<155.176 414.943> 352 27<36.6315 66.3251>
VStem: 85 70<60.25 351.513>
LayerCount: 3
Fore
SplineSet
241.776 262.337 m 10x90
 334.222 537.553 l 18
 337.329 546.733 345.962 556.112 357.868 556.112 c 0
 367.868 556.112 379.443 543.219 376.087 533.635 c 10
 283.043 257.138 l 18
 276.907 239.216 271.64 225.844 255.838 225.844 c 0
 243.938 225.844 234.528 240.799 241.776 262.337 c 10x90
189 -14 m 0
 127 -14 85 22 85 105 c 10
 85 337 l 2
 85 349 78 352 47 352 c 0
 43 352 35 365 35 372 c 0
 35 375 38 378 40 379 c 0xb0
 93 394 136 468 146 468 c 0
 152 468 164 467 163 458 c 10
 155 414 l 18
 153 405 167 400 180 400 c 10
 405 400 l 18
 410 400 415 388 415 376 c 0
 415 364 410 352 405 352 c 10
 195 352 l 18xd0
 161 352 155 351 155 324 c 10
 155 135 l 18
 155 61 190 41 221 41 c 0
 260 41 280 48 296 60 c 0
 302 64 306 55 306 47 c 0
 306 36 250 -14 189 -14 c 0
EndSplineSet
EndChar
StartChar: uniA786
Encoding: 42886 42886 3440
Width: 670
VWidth: 0
Flags: WO
HStem: -15 31<337.354 495.938> 604 38<106.512 254.929 339.515 603.53>
VStem: 61 100<207.187 419.112> 619 35<517.175 586.637>
AnchorPoint: "top_accent" 341 710 basechar 0
AnchorPoint: "cedilla" 441 8 basechar 0
AnchorPoint: "below_accent" 419 -100 basechar 0
LayerCount: 3
Fore
SplineSet
254.929 604 m 2
 204 604 l 1
 157 604 l 2
 125 604 89 591 75 565 c 0
 69 554 49 527 34 527 c 0
 29 527 27 533 27 540 c 0
 27 546 29 554 32 560 c 0
 50 598 57 629 63 671 c 0
 66 693 75 694 80 694 c 0
 85 694 99 673 105 662 c 0
 113 648 147 642 175 642 c 2
 556 642 l 2
 585 642 604 649 614 656 c 0
 634 670 649 692 664 692 c 0
 668 692 671 679 671 669 c 0
 671 666 670 662 670 660 c 0
 661 623 654 587 654 561 c 0
 654 557 654 553 654 549 c 0
 654 537 648 517 638 517 c 0
 628 517 624 532 619 558 c 0
 614 586 591 604 527 604 c 2
 439 604 l 2
 275.73 604 161 480 161 333 c 0
 161 174.579 259 16 415 16 c 0
 527 16 575 86 601 137 c 0
 607 148 621 152 626 156 c 0
 627 157 627 157 628 157 c 0
 632 157 635 147 635 138 c 0
 635 135 634 132 634 130 c 0
 630 105 616 49 601 26 c 0
 596 18 577 13 552 5 c 0
 517 -6 444 -15 384 -15 c 0
 205.575 -15 61 129 61 309 c 0
 61 435.234 138.807 536.396 252.929 590.888 c 0
 262.827 595.615 259.929 604 254.929 604 c 2
EndSplineSet
EndChar
StartChar: uniAB34
Encoding: 43828 43828 3446
Width: 585
VWidth: 0
Flags: WO
HStem: -14 60<365.037 483.855> -14 44<27 112.258> 257 31<206.612 230.479 306.332 479.014> 383 31<357.622 461.827>
VStem: 115 73<59.0549 222.715> 225 62<133.034 251.482> 490 65<292.255 362.987> 534 17<82.0341 90.6221>
AnchorPoint: "cedilla" 448 8 basechar 0
AnchorPoint: "ogonek" 487 18 basechar 0
AnchorPoint: "below_accent" 409 -100 basechar 0
AnchorPoint: "top_accent" 406 550 basechar 0
LayerCount: 3
Fore
SplineSet
188 114 m 0xbd
 188 57 110 -14 42 -14 c 0
 12 -14 -13 2 -13 22 c 0
 -13 44 7 68 28 68 c 0
 54 68 63 30 91 30 c 0
 113 30 119 62 119 91 c 0
 119 97 115 125 115 138 c 0
 115 215.989 160.987 287.979 241.966 288 c 1
 272.395 360.995 340.896 414 424 414 c 0
 501 414 555 376 555 302 c 0x7e
 555 272 546 257 520 257 c 2
 312 257 l 2
 296 257 287 254 287 220 c 0
 287 130 348 46 438 46 c 0
 463 46 508 57 534 91 c 0
 537 94 542 98 545 98 c 0
 552 98 553 86 551 78 c 0
 541 43 485 -14 393 -14 c 0
 302 -14 225 70 225 203 c 0
 225 219.753 226.891 236.177 230.479 252 c 1
 198.494 251.985 185 219.992 185 186 c 0
 185 153 188 132 188 114 c 0xbd
408 383 m 0
 352 383 306 329 306 303 c 0
 306 295 311 288 325 288 c 2
 407 288 l 2
 436 288 459 289 480 293 c 0
 487 294 490 310 490 321 c 0
 490 361 447 383 408 383 c 0
EndSplineSet
EndChar
StartChar: uniAB36
Encoding: 43830 43830 3454
Width: 522
VWidth: 0
Flags: WO
HStem: -285 40<152.289 270.464> -97 34<145.852 265.52> -14 38<204.516 336.195> 382 32<198.653 318.569> 401 20G<442 446>
VStem: 35 82<108.761 280.438> 79 51<-224.225 -115.163> 377 70<-112.62 24.9941 45.2624 333.801>
LayerCount: 3
Fore
SplineSet
335 -158 m 1xe3
 294 -124 244 -97 191 -97 c 0
 147 -97 130 -126 130 -154 c 0
 130 -214 156 -245 201 -245 c 0
 261 -245 308 -206 335 -158 c 1xe3
377 -6 m 0
 377 17 375 25 371 25 c 0
 368 25 365 23 362 20 c 0
 345 5 298 -14 235 -14 c 0
 131 -14 35 54 35 178 c 0
 35 319 135 414 282 414 c 0xf5
 310 414 361 409 379 403 c 0
 401 396 404 392 410 392 c 0
 424 392 428 406 439 420 c 0
 440 421 441 421 443 421 c 0xed
 449 421 459 416 459 411 c 0
 459 398 447 360 447 295 c 2
 447 8 l 2
 447 -35 430 -123 400 -167 c 1
 431 -203 452 -241 452 -269 c 0
 452 -278 451 -286 444 -286 c 0
 437 -286 429 -273 423 -262 c 0
 413 -243 397 -220 376 -197 c 1
 332 -248 270 -285 201 -285 c 0
 117 -285 79 -240 79 -179 c 0
 79 -107 148 -63 217 -63 c 0
 261 -63 310 -87 352 -121 c 1
 359 -102 377 -66 377 -6 c 0
257 382 m 0
 185 382 117 320 117 205 c 0
 117 72 212 24 272 24 c 0
 306 24 333 28 358 47 c 0
 373 58 376 91 378 132 c 1
 378 171 l 2
 378 207 378 250 377 275 c 0
 375 335 323 382 257 382 c 0
EndSplineSet
EndChar
StartChar: u10191
Encoding: 65937 65937 3448
Width: 580
VWidth: 0
Flags: W
HStem: 308 50<68.2358 509.526>
LayerCount: 3
Fore
SplineSet
484 308 m 10
 79 308 l 26
 71.8086 308 65 314 65 320 c 0
 65 329 71.4717 358 89 358 c 26
 502 358 l 18
 508 358 515 353 515 347 c 0
 515 338 502 308 484 308 c 10
EndSplineSet
EndChar
StartChar: u101A0
Encoding: 65952 65952 3447
Width: 558
Flags: W
HStem: -285 21G<234.939 259.5> 94 68<201.537 417.369> 105 65<74.5049 193.591> 235 78<281.862 406.808> 594 69<324.876 448.492>
VStem: 15 27<30.0264 68.185> 192 58<-227.699 286.365 323.114 507.158> 485 38<397.041 552.291>
LayerCount: 3
Fore
SplineSet
193 105 m 0xbf
 178 106 126 107 126 107 c 0
 99 107 59 93 42 41 c 0
 40 36 36 30 28 30 c 0
 20 30 15 39 15 58 c 0
 15 103 75 170 140 170 c 0xbf
 223 170 273 162 342 162 c 0
 427 162 415 192 425 192 c 0
 435 192 440 184 440 161 c 0
 440 132 412 94 388 94 c 0xdf
 361 94 286.99 102.442 271 103 c 0
 261.006 103.349 203 104 193 105 c 0xbf
245 271 m 0
 245 242 247 7 250 -28 c 0
 257 -114 275 -245 275 -263 c 0
 275 -283 269 -285 250 -285 c 8
 219.879 -285 192 -269 192 -234 c 0
 192 -209 195 378 195 453 c 0
 195 574 264 663 375 663 c 0
 479 663 523 561 523 457 c 0
 523 347 445 235 335 235 c 0
 300 235 274 261 255 286 c 0
 249 294 245 288 245 271 c 0
485 495 m 0
 485 544 446 594 397 594 c 0
 333 594 244 551 244 361 c 0
 244 339 275 313 303 313 c 0
 434 313 485 381 485 495 c 0
EndSplineSet
Validated: 5
EndChar
StartChar: u1F432
Encoding: 128050 128050 3077
Width: 985
Flags: HMW
LayerCount: 3
Fore
SplineSet
489.382 528.992 m 0
 484.49 526.201 483.779 520.197 486.324 518.926 c 0
 504.657 509.785 516.581 487.846 539.051 487.464 c 1
 567.794 488.417 577.342 503.286 588.173 510.896 c 0
 594.804 516.112 595.879 519.103 588.9 524.411 c 0
 588.865 524.439 588.811 524.471 588.76 524.484 c 0
 581.934 526.616 570.148 554.406 543.712 554.376 c 0
 516.188 554.349 508.296 540.278 489.382 528.992 c 0
613.6 157.998 m 1
 624.073 154.636 631.957 157.321 617.241 143.777 c 0
 608.17 135.429 599.823 134.726 589.241 138.777 c 0
 574.596 144.788 572.367 169.883 592.267 162.12 c 0
 600.893 158.843 605.24 158.182 613.6 157.998 c 1
604.894 220.676 m 0
 617.676 220.879 630.92 219.404 654.457 232.775 c 0
 671.847 242.654 678.907 243.545 665.882 222.206 c 0
 645.198 188.32 614.489 190.863 608.241 190.777 c 0
 599.132 190.85 589.662 197.135 590.885 207.201 c 0
 591.618 213.235 595.965 220.449 604.894 220.676 c 0
609.273 282.298 m 0
 616.934 284.765 646.729 294.52 660.745 323.774 c 0
 672.411 348.124 684.381 346.611 676.241 318.777 c 0
 662.174 270.672 635.411 257.303 621.241 252.777 c 0
 612.474 250.214 602.398 253.43 599.823 262.468 c 0
 598 268.862 599.227 279.212 609.273 282.298 c 0
491.241 28 m 0
 496.636 22.0391 501.233 14.4297 510.901 13.3281 c 0
 521.83 12.083 520.623 9.56836 513.074 4.66602 c 0
 505.636 -0.164062 490.359 -0.28125 478.671 3.73438 c 0
 468.339 7.38825 486.057 33.6391 491.241 28 c 0
440.241 -33 m 0
 447.403 -41.002 456.813 -52.0713 484.406 -57.335 c 0
 497.176 -59.7705 497.341 -63.5996 485.739 -66.665 c 0
 459.268 -73.6592 423.669 -65.4785 419.241 -62 c 0
 407.581 -53.0078 436.515 -28.8984 440.241 -33 c 0
389.23 -94 m 0
 399.997 -105.346 449.921 -129.49 490.74 -129.671 c 0
 496.74 -129.697 505.072 -132.669 505.072 -134.669 c 0
 505.072 -136.669 494.01 -139.866 489.074 -140.666 c 0
 435.68 -149.314 380.547 -130.751 373.241 -123 c 0
 363.626 -112.32 385.743 -90.3994 389.23 -94 c 0
758.017 -23.6855 m 1
 767.956 -32.0254 794.962 -41.8984 804.517 -43.1855 c 0
 820.617 -45.3535 806.991 -35.1855 798.991 -15.6855 c 0
 790.647 4.65234 788.241 58 822.267 104.643 c 1
 823.491 130.777 l 1
 801.716 139.892 801.896 155.236 796.409 172.746 c 0
 795.213 176.563 818.222 187 818.222 184 c 0
 818.222 165.47 846.519 152.426 876.987 152.5 c 0
 899.13 152.554 884.969 163.171 876.987 167.483 c 1
 834.241 175 866.241 207 820.987 212 c 0
 820.575 212.046 820.311 212.592 820.602 212.969 c 0
 829.718 224.657 841.076 239.84 839.487 253 c 0
 837.743 267.439 826.847 278.413 823.987 298.5 c 0
 823.846 299.49 843.964 292.142 851.241 299 c 1
 733.742 353.379 830.058 426.57 734.487 441.277 c 0
 734.202 441.32 733.901 441.646 733.994 442.02 c 0
 735.404 447.744 727.624 470.271 739.487 472.766 c 1
 739.781 472.766 l 1
 794.312 456.69 821.411 477.756 837.402 517.113 c 0
 850.853 550.225 886.031 562.239 889.987 593.777 c 0
 892.403 607.953 864.626 598.022 851.741 586.777 c 1
 824.589 568.416 802.811 536.778 781.741 536.777 c 0
 749.741 536.777 747.741 557.777 715.099 525.035 c 0
 700.047 509.937 647.601 529.684 647.989 534.024 c 0
 646.436 545.223 664.653 554.137 669.708 566.438 c 0
 673.534 576.043 714.773 603.448 699.374 603.448 c 0
 682.804 603.448 641.56 563.113 622.241 564.777 c 0
 613.302 565.547 604.966 566.596 598.161 567.454 c 0
 569.909 570.877 555.708 566.186 524.957 562.66 c 0
 502.76 560.119 491.714 562.742 460.241 558.777 c 1
 431.534 543.27 423.871 503.048 340.241 476.777 c 0
 316.779 468.563 273.589 468.041 281 466.349 c 0
 288.217 464.701 292.551 461.572 286.033 450.875 c 0
 285.165 449.459 291.382 435.697 298.692 440.26 c 0
 306.794 445.319 328.255 447.004 349.492 457.529 c 1
 373.819 457.432 396.217 466.33 418.241 470.777 c 0
 430.074 473.172 437.728 478.561 448.95 479.204 c 0
 480.617 481.021 521.691 453.216 529.241 437.777 c 1
 545.266 410.967 532.293 366.718 527.491 354.777 c 0
 508.991 308.777 524.507 313.609 543.241 316.777 c 0
 588.903 324.5 557.807 418.622 602.225 435.589 c 0
 614.165 439.673 623.567 421.257 620.12 418.13 c 0
 599.151 396.618 608.424 368.583 601.241 334.777 c 0
 596.518 312.536 572.831 291.011 575.059 281.249 c 1
 601.85 206.927 561.459 143.803 541.071 95.5508 c 1
 541.071 95.5508 525.358 85.1338 525.241 85 c 0
 444.627 -7.1416 376.241 -18 296.491 -174.723 c 0
 292.863 -181.853 280.464 -202.715 303.991 -209.223 c 0
 342.755 -219.944 350.294 -206.431 359.491 -191.223 c 1
 392.533 -203.985 401.2 -222 464.795 -214.794 c 0
 465.093 -214.76 465.233 -214.325 465.116 -214.021 c 0
 459.292 -199.092 434.4 -193.2 447.602 -172.389 c 1
 473.802 -189.228 519.834 -219.614 546.807 -208.107 c 1
 536.536 -196.786 528.516 -178.837 526.802 -160.79 c 1
 564.4 -172.4 621.756 -231.182 670.395 -219.595 c 0
 670.76 -219.508 665.535 -216.378 642.308 -202.741 c 0
 633.77 -197.727 637.173 -199.197 637.173 -199.197 c 2
 626.804 -190.869 638.15 -171.575 642.798 -167.997 c 1
 679.35 -177.871 744.678 -239.787 803.491 -250 c 0
 843.026 -256.862 830.568 -238.992 797.487 -236.5 c 1
 789.326 -226.934 801.744 -222.721 810.987 -221 c 0
 811.142 -220.973 811.305 -220.868 811.396 -220.72 c 0
 820.454 -205.682 809.275 -211.185 798.991 -205 c 0
 783.517 -195.699 748.105 -193.989 745.991 -170.5 c 0
 743.577 -136.76 761.217 -126.203 763.241 -89 c 1
 764.945 -85.0752 766.719 -76.2988 763.241 -75 c 0
 711.589 -55.7119 756.578 -14.8013 758.017 -23.6855 c 1
248.882 -177.773 m 0
 328.348 16.0264 576.329 127.094 553.407 264.623 c 1
 545.765 281.495 l 1
 517.945 288.934 487.053 286.641 454.296 282.109 c 1
 423.353 276.691 432.985 267.881 448.29 245.641 c 0
 449.387 244.05 448.26 241.842 446.396 241.699 c 0
 380.056 236.885 301.995 228.068 295.626 276.58 c 0
 294.471 284.444 291.364 295.908 297.724 305.673 c 0
 298.535 306.923 300.261 307.087 301.292 306.353 c 0
 311.536 299.092 324.395 286.253 335.772 289.289 c 1
 337.107 298.604 340.627 315.051 350.884 322.807 c 0
 351.836 323.525 353.189 323.438 354.039 322.715 c 0
 363.356 314.785 375.952 300.188 389.23 297.961 c 1
 389.244 301.037 389.695 343.456 399.705 341.247 c 0
 419.215 336.954 433.637 317.983 444.949 320.453 c 1
 449.091 331.49 439.917 355.531 454.596 365.795 c 0
 458.66 368.637 466.098 340.961 478.426 334.988 c 1
 494.848 344.987 494.184 365.764 492.969 379.188 c 1
 494.246 400.439 l 1
 493.685 420.22 484.458 436.109 466.684 434.047 c 1
 464.132 430.889 459.358 406.166 450.027 405.783 c 0
 442.353 405.465 426.862 442.018 424.575 442.669 c 1
 421.112 440.405 416.838 395.416 407.015 393.288 c 0
 392.688 390.187 384.184 435.023 376.269 432.021 c 0
 371.753 430.306 375.822 400.444 364.934 395.891 c 0
 356.591 392.406 332.16 410.536 327.596 408.319 c 0
 320.833 405.034 323.557 379.485 312.229 373.365 c 0
 303.02 368.393 288.72 409.185 287.443 409.455 c 0
 279.753 411.079 286.71 367.008 270.858 367.781 c 0
 264.691 368.096 256.79 395.891 256.79 395.891 c 1
 227.932 396.605 188.734 474.494 239.647 490.858 c 0
 258.544 497.001 286.856 494.577 305.725 501.42 c 0
 427.348 545.51 413.322 591.806 464.795 595.995 c 1
 465.07 595.995 l 2
 486.652 595.462 494.78 589.676 505.862 589.756 c 0
 548.816 590.065 543.772 610.475 613.072 604.289 c 1
 623.654 667.697 727.765 623.701 777.816 648.425 c 0
 778.178 648.604 778.605 648.695 778.993 648.685 c 0
 795.887 648.274 768.365 614.85 761.593 596.244 c 1
 831.647 588.881 876.603 633.763 925.021 635.225 c 0
 925.947 635.252 926.832 634.677 927.229 634.05 c 0
 942.382 610.03 898.016 544.396 874.537 499.703 c 1
 864.614 476.996 845.965 451.02 805.863 442.669 c 1
 842.798 409.384 827.842 375.77 863.979 341.544 c 0
 883.789 322.78 906.734 307.047 930.18 299.531 c 0
 931.175 299.213 931.862 298.266 931.925 297.286 c 0
 932.922 281.21 918.729 267.655 869.981 255.701 c 1
 871.851 203.953 889.172 154.041 951.854 184.366 c 0
 953.419 185.123 955.506 184.036 955.474 182.048 c 0
 954.831 149.958 929.27 127.956 869.692 130.037 c 1
 867.127 100.73 866.163 73.042 840.972 44.1279 c 1
 872.909 4.52167 802.254 -67.3537 894.385 -33.4316 c 0
 895.92 -32.8657 897.795 -33.9391 897.778 -35.8486 c 0
 897.24 -61.8467 888.391 -84.9424 805.733 -81.5 c 1
 795.192 -114.105 784.702 -165.521 806.235 -172.271 c 0
 866.488 -191.154 841.325 -222.597 852.355 -227.344 c 1
 883.308 -228.943 893.356 -209.239 911.991 -194 c 0
 913.783 -192.528 923.069 -196.042 922.491 -200 c 0
 914.723 -253.246 868.557 -282.739 834.235 -286.473 c 0
 778.521 -292.529 743.974 -255.072 705.722 -245.522 c 1
 655.165 -275.857 612.775 -242.89 570.995 -226.744 c 1
 552.996 -246.418 524.176 -246.582 489.26 -232.854 c 1
 472.809 -256.389 417.884 -243.2 378.729 -240.407 c 1
 372.948 -251.787 358.088 -253.666 341.136 -253.509 c 2
 340.954 -253.509 l 1
 284.556 -248.931 231.243 -220.791 248.882 -177.773 c 0
298.241 318.777 m 0
 261.551 303.278 207.669 245.957 279.684 203.401 c 0
 281.744 202.182 280.928 199.24 278.969 198.774 c 0
 192.16 178.691 194.944 223.445 190.567 257.131 c 1
 162.82 238.266 136.059 223.938 126.487 187.662 c 0
 125.961 185.656 123.346 185.24 122.117 186.685 c 0
 103.969 208.338 99.6416 230.655 116.103 252.477 c 1
 87.7334 250.114 70.7812 223.193 51.2764 211.14 c 0
 33.7705 200.323 15.6133 204.175 -9.63379 245.262 c 0
 -10.6307 246.883 -9.4361 249.175 -7.40332 249.1 c 0
 60.3359 246.779 43.2207 310.493 93.2715 319.716 c 1
 78.535 374.397 -25.4874 377.743 50.7217 460.779 c 0
 52.3256 462.525 54.8948 461.137 55.084 459.341 c 0
 61.9414 394.37 82.2051 419.279 110.073 404.021 c 0
 134.135 390.846 117.791 371.805 158.509 354.507 c 1
 139.925 400.893 181.32 417.173 132.638 445.085 c 0
 130.407 446.36 131.439 449.759 133.856 449.79 c 0
 226.284 450.957 179.885 361.133 251.317 351.664 c 1
 311.164 355.954 408.783 365.472 298.241 318.777 c 0
EndSplineSet
Validated: 41
EndChar
StartChar: u1F596
Encoding: 128406 128406 3385
Width: 567
VWidth: 0
Flags: W
HStem: -14 31<248.465 451.769> 64 37<249.862 424.697> 257 29<180.314 195.621> 376 34<67.2223 122.715> 610.076 46.1084<191.5 215.663>
VStem: 172.723 22.8535<499.51 607.35> 175 47<33.7491 57.9603> 198 21<287.952 451.411> 203 30<94.272 128.075> 261 13.2646<394.327 435.877> 296.187 16.7812<449.872 532.141> 417.616 26.3838<372.09 476.175> 446 33<77 130> 481 32<173.701 263.262> 492 43<304.005 550.635> 499 22.6162<367.19 564.715>
LayerCount: 3
Fore
SplineSet
472.616 591.994 m 0xfd78
 473.849 593.859 491.616 598.994 507.616 590.994 c 0
 515.616 586.994 517.616 573.994 519.616 572.994 c 0
 520.616 572.994 520.616 546.994 521.616 545.994 c 0xfd79
 522.616 543.994 523 403 528 386 c 0
 534 366 535 354 535 341 c 0xf87a
 535 330 535 320 534 311 c 0
 533 297 523 297 523 293 c 0
 523 285 528 276 528 268 c 2
 528 264 l 1
 525 248 515 248 514 241 c 0
 513 237 513 235 513 233 c 0
 513 222 516 213 516 203 c 0
 516 198 515 194 515 192 c 0
 505 145 489 124 479 82 c 0
 478 78 479 78 479 77 c 0
 479 55 513 45 513 25 c 0
 513 20 512 17 511 16 c 0
 494 -12 463 -7 438 -11 c 0
 420 -14 406 -14 395 -14 c 0
 377 -14 361 -13 343 -12 c 0
 334 -12 328 -11 324 -11 c 0
 307 -11 295 -12 283 -12 c 0
 258 -12 237 -10 211 -1 c 0
 187 7 182 28 176 46 c 0
 175 50 175 53 175 54 c 0xfa7c
 175 65 181 71 183 76 c 0
 191 93 201 94 203 104 c 1xf8f8
 203 112 195 118 190 126 c 0
 163 171 163 169 160 169 c 0
 141 168 90 219 94 223 c 0
 105 234 33 336 34 344 c 0
 35 355 22 363 26 377 c 0
 32 399 47 410 72 410 c 0
 96 410 118 396 131 388 c 0
 141 382 173 349 174 334 c 0
 175 316 181 286 190 286 c 0
 193 286 196 290 196 290 c 1
 197 338 197 361 198 405 c 2
 198 410 l 2
 198 449 179.02 455.473 172.723 487.866 c 0
 171.005 496.701 170.27 505.727 169.725 513.771 c 0
 165.883 564.979 165.858 596.554 182.385 642.552 c 0
 186.558 652.532 194.219 655.04 200.109 656.185 c 0
 209.926 658.093 214.807 653.948 220.286 651.957 c 0
 236.728 645.984 228.782 652.283 228.767 660.736 c 8
 228.731 679.851 267.487 676.413 276.676 671.068 c 0
 282.347 668.095 281.064 660.717 286.351 658.256 c 0
 302.209 650.874 302.782 635.851 304.928 625.016 c 0
 306.863 616.17 308.589 609.312 309.112 604.339 c 0
 312.875 568.537 309.936 519.963 312.968 491.122 c 0
 320.807 416.533 337.666 438.459 350.616 437.326 c 0
 351.905 437.213 366.814 493.376 382.902 553.994 c 0
 391.69 587.106 396.62 621.548 409.62 648.872 c 8
 417.075 664.542 435.652 664.819 453.796 654.197 c 0
 455.701 653.027 459.511 650.687 464.317 648.258 c 0
 475.836 642.231 459.845 572.655 472.616 591.994 c 0xfd78
261 399 m 0
 259.469 409.893 265.427 417.799 265.427 417.799 c 0
 265.181 433.922 251.657 432.919 249.559 443.717 c 2
 247.078 456.478 l 2
 240.973 487.89 241.519 516.52 236.558 542.043 c 2
 235.795 545.969 l 2
 229.661 572.282 226.009 585.835 215.73 607.267 c 0
 214.367 609.039 207.904 610.84 203.979 610.076 c 0
 186.309 606.642 191.842 578.175 192.96 567.186 c 0
 193.286 555.024 194.431 549.135 195.576 543.245 c 0
 201.683 511.833 208.47 497.871 214.604 471.559 c 0
 217.685 460.951 213.158 458.034 213.921 454.107 c 0
 215.447 446.255 218.747 439.765 220.082 432.894 c 0
 224.28 411.298 226 410 223 393 c 0
 221 383 219 380 219 375 c 2
 219 365 l 2xfd79
 219 331 221 257 194 257 c 0
 176 257 151 287 147 308 c 0
 144 322 146 327 143 335 c 0
 138 348 135 355 129 361 c 1
 113 354 104 376 95 376 c 0
 88 376 67 366 67 363 c 0
 66 351 74 345 78 333 c 0
 82 320 83 314 87 305 c 0
 96 286 104 277 112 260 c 0
 124 235 123 223 137 203 c 1
 143 197 161 191 171 183 c 0
 177 178 185 180 196 173 c 0
 204 168 208 158 214 148 c 0
 220 138 234 131 234 114 c 0
 234 109 233 108 233 107 c 0
 233 96 240 94 248 94 c 0
 288 94 310 101 346 101 c 2
 351 101 l 2
 383 100 398 91 426 91 c 0
 445 91 446 110 446 130 c 0
 446 132 443 138 445 142 c 0
 450 155 458 156 461 163 c 0
 470 182 471 201 475 222 c 0
 477 233 481 235 481 241 c 0
 481 249 480 257 479 266 c 1
 479 275 481 279 481 281 c 0xf8fc
 481 283 488 304 487 304 c 0
 486 304 494 311 492 347 c 0xf87a
 491 357 491 408 493 418 c 0
 503 466 497 507 499 511 c 0
 503 519 501 531 503 544 c 0
 504 556 512.616 555.994 494.616 561.994 c 0
 484.616 565.994 483.616 568.994 480.616 562.994 c 0
 477.616 555.994 479 554 478 539 c 0
 476 525 467 513 472 500 c 1
 471 496 459 483 457 478 c 0
 452 459 447 425 444 396 c 1
 439 379 434.616 380.994 430.616 370.994 c 0
 421.616 345.994 411.616 361.994 417.616 395.994 c 0
 419.616 406.994 416.864 438.596 423.975 451.023 c 0
 428.743 459.641 428.619 469.69 431.482 479.478 c 0
 435.691 493.163 435.465 513.784 438.814 540.594 c 1
 443.584 549.211 437.372 558.264 441.755 573.941 c 0
 444.88 586.718 456.461 615.819 445.938 621.759 c 0
 438.317 626.441 422.503 617.787 416.824 610.253 c 0
 410.973 600.727 423.722 586.083 413.013 566.943 c 0
 411.842 565.038 410.672 563.133 408.331 559.322 c 1
 403.425 537.667 397.871 520.085 394.397 503.323 c 1
 384.66 437.923 369.134 443.775 365 408 c 1
 350.431 379.16 309 408 313 424 c 1
 313 436 299.049 456.393 296.187 471.117 c 1
 297.227 518.18 283.403 536.887 283.704 556.3 c 1
 292.267 580.377 292.351 595.674 282.644 614.16 c 0
 281.09 616.915 272.064 616.18 272.311 625.396 c 1
 273.701 628.723 286.384 639.59 282.4 641.619 c 0
 277.945 643.889 256.948 644.349 254.152 640.203 c 0
 247.146 629.815 253.66 621.771 253.358 602.355 c 0
 254.066 588.232 251.011 567.264 258.591 554.476 c 0
 261.508 549.949 257.798 516.628 263.278 514.638 c 1
 264.498 513.053 275.172 446.396 274.265 426.417 c 0
 272.493 387.407 262.531 388.107 261 399 c 0
373 17 m 0
 404 17 422 26 446 30 c 1
 446 30 447 31 452 31 c 0
 461 31 466 30 470 30 c 0
 475 30 480 33 480 33 c 1
 477 36 467 39 463 41 c 0
 430 60 376 64 329 64 c 0
 316 64 305 63 292 62 c 0
 259 60 245 63 223 48 c 0
 222 47 222 48 222 47 c 0xfa78
 222 43 238 35 246 33 c 0
 287 21 310 22 350 18 c 0
 361 16 367 17 373 17 c 0
333 260 m 0
 340 240 340 229 344 213 c 0
 347 202 351 196 353 187 c 0
 355 175 351 166 342 164 c 0
 314 159 319 211 316 229 c 0
 311 255 301 262 287 275 c 0
 280 282 272 284 266 288 c 0
 265 289 259 290 259 294 c 0
 258 299 262 302 263 304 c 0
 269 329 304 306 306 299 c 1
 306 299 328 276 333 260 c 0
EndSplineSet
Validated: 33
EndChar
StartChar: u1F707
Encoding: 128775 128775 3370
Width: 1026
VWidth: 0
Flags: W
HStem: -21 46<926.627 1036.25> -5 29<-4.30756 49.5246 208.446 267.965 348.692 424.188 563.775 632.308> 285 43<298.004 454> 598 50.999<435.875 454> 627 30<290.38 338.5 549.956 674.529>
VStem: -5 175<2 86.5> 454 79<46.2739 284.875 328.305 597.661> 736 90<410.64 576.45>
LayerCount: 3
Fore
SplineSet
736 477 m 0x2f
 736 558 714 627 601 627 c 0
 546 627 538 603 537 573 c 0
 534 500 533 439 533 359 c 0
 533 326 553 324 586 324 c 0
 678 324 736 400 736 477 c 0x2f
498.997 0.999023 m 25
 451.418 -1.34082 431 -5 377 -5 c 0
 360 -5 348 -2 348 6 c 0
 348 15 358 20 381 24 c 0
 430 33 454 50 454 96 c 2
 454 267 l 2
 454 277 452 285 432 285 c 2
 291 285 l 10
 276.257 285 268 275 261 262 c 0
 235 218 211 174 179 112 c 0
 173 101 170 91 170 82 c 0
 170 50 206 37 235 30 c 0
 258 24 268 19 268 10 c 0
 268 2 256 -1 239 -1 c 0
 221 -1 186 1 150 1 c 0
 105 1 57 -5 24 -5 c 0
 7 -5 -5 -2 -5 6 c 0
 -5 15 6 21 28 28 c 0
 62 38 104 78 132 126 c 2
 405 594 l 2
 410 602 401 610 388 611 c 1
 300 626 l 1
 293 629 290 634 290 639 c 0
 290 645 294 651 300 651 c 0
 342 651 412.234 648.999 483.998 648.999 c 16x77
 521.998 648.999 543 657 601 657 c 0
 747 657 826 602 826 493 c 0
 826 403 763 353 708 325 c 0
 703 323 704 318 708 312 c 0
 770 218 816.861 142.962 911 58 c 24
 945.639 26.7383 979 25 1026 25 c 0
 1036 25 1041 22 1041 14 c 0
 1041 -15 985 -21 960 -21 c 0xaf
 903 -21 857 -10 822 33 c 0
 773 93 739 129 670 241 c 0
 659 259 646.616 266.121 627 274 c 24
 597.829 285.716 566 288 548 290 c 0
 537 291 533 282 533 270 c 2
 533 110 l 2
 533 67 550 33 600 24 c 0
 623 20 633 15 633 6 c 0
 633 -2 621 -5 604 -5 c 0x67
 550 -5 539.948 -1.34082 498.997 0.999023 c 25
438 581 m 2
 302 343 l 2
 299 338 298 335 298 333 c 0
 298 329 303 328 314 328 c 2
 438 328 l 2
 453 328 454 328 454 343 c 2
 454 580 l 2
 454 592 454 598 451 598 c 0
 448 598 444 592 438 581 c 2
EndSplineSet
Validated: 1
EndChar
StartChar: u1F70A
Encoding: 128778 128778 3373
Width: 659
Flags: W
HStem: -3 29<179.368 261.384 398.339 480.628> 298.5 50<70.1276 299.498 359.498 599.49> 382.5 20G<642.498 651.998> 624 29<178.368 260.738 397.691 479.628>
VStem: 299.498 60<51.5495 298.5 348.501 598.45> 604.998 35<223.674 285.877>
LayerCount: 3
Fore
SplineSet
363.498 298.5 m 2
 360.498 298.5 359.498 297.5 359.498 294.5 c 2
 359.498 104 l 2
 359.498 56 393.498 35 443.498 26 c 0
 466.498 22 481.498 17 481.498 8 c 0
 481.498 0 469.498 -3 452.498 -3 c 0
 398.498 -3 381.17 2 335.498 2 c 24
 285.54 2 261.498 -3 207.498 -3 c 0
 190.498 -3 178.498 0 178.498 8 c 0
 178.498 17 193.498 22 216.498 26 c 0
 266.498 35 299.498 56 299.498 104 c 2
 299.498 293.5 l 2
 299.498 296.5 298.498 298.5 295.498 298.5 c 2
 121.998 298.5 l 2
 89.998 298.5 51.7236 288.834 45.4434 269.846 c 0
 41.5088 257.949 26.4375 227.907 11.665 225.303 c 0
 6.74121 224.435 3.72949 229.996 2.51465 236.89 c 0
 1.47266 242.799 2.05273 251.024 3.96582 257.454 c 0
 15.0928 298.003 14.5205 341.565 13.1357 383.969 c 0
 12.2695 406.155 20.959 408.703 25.8838 409.571 c 0
 30.8076 410.439 48.0566 392.039 56.0605 382.398 c 0
 73.9463 360.855 111.998 348.5 139.998 348.5 c 2
 292.498 348.5 l 2
 298.498 348.5 299.498 350.5 299.498 356.5 c 2
 299.498 546 l 2
 299.844 593.999 265.498 615 215.498 624 c 0
 192.498 628 177.498 633 177.498 642 c 0
 177.498 650 189.498 653 206.498 653 c 0
 260.498 653 277.826 648 323.498 648 c 24
 373.456 648 397.498 653 451.498 653 c 0
 468.498 653 480.498 650 480.498 642 c 0
 480.498 633 465.498 628 442.498 624 c 0
 392.498 615 359.839 593.999 359.498 546 c 2
 359.498 354.5 l 2
 359.498 349.5 359.498 348.5 361.498 348.5 c 2
 541.998 348.5 l 2
 570.998 348.5 589.998 359.5 599.998 366.5 c 0
 619.998 380.5 634.998 402.5 649.998 402.5 c 0
 653.998 402.5 656.998 389.5 656.998 379.5 c 0
 656.998 376.5 655.998 372.5 655.998 370.5 c 0
 646.998 333.5 639.998 293.5 639.998 267.5 c 0
 639.998 263.5 639.998 259.5 639.998 255.5 c 0
 639.998 243.5 633.998 223.5 623.998 223.5 c 0
 613.998 223.5 609.642 238.43 604.998 264.5 c 0
 601.491 284.19 576.998 298.5 512.998 298.5 c 6
 363.498 298.5 l 2
EndSplineSet
Validated: 33
EndChar
StartChar: u1F718
Encoding: 128792 128792 3380
Width: 495
VWidth: 0
Flags: W
HStem: -14 30<201.449 322.064> 340 30<212.368 277.552> 626 25<21.1896 85.0344 430.608 474.98>
VStem: 35 82<98.1983 249.171> 42 82.001<447.527 578.744> 370.999 82.001<437.067 585.329> 378 82<98.8425 246.885>
LayerCount: 3
Fore
SplineSet
352.072 412.562 m 0xe8
 367.148 436.594 370.999 473.695 370.999 503.875 c 0
 370.999 544.02 355.195 585.088 327.749 614.1 c 0
 304.935 638.215 332.353 651.782 348.334 651 c 0
 393.8 648.776 437 651 465 651 c 0
 471 651 475 645 475 639 c 0
 475 634 472 629 465 626 c 1
 430.608 621.01 l 2
 417.608 620.01 408.608 612.01 413.608 604.01 c 2
 413.608 604.01 453 580.979 453 522.979 c 0xec
 453 453.439 416.351 389.142 337.533 360.163 c 1
 414.487 335.484 460 265.141 460 190.141 c 0
 460 84.9206 384 -14 234 -14 c 0
 122 -14 35 61.541 35 166.759 c 0xf2
 35 239.636 86.6411 312.299 162.383 346.216 c 1
 85.3482 364.973 42 430.021 42 502.021 c 0
 42 529.302 50.6378 556.956 66 582.222 c 0
 75.3513 597.602 91.6242 606.981 89 610 c 0
 77.8471 622.83 58 621 34 627 c 0
 28 629 20 635 20 644 c 0
 20 654 37 655 43 655 c 0
 67.97 655 137.5 647 155.05 647 c 0
 167.2 647 166.652 636.124 154.284 623.046 c 0
 129.082 596.395 124.001 557.27 124.001 520.125 c 0
 124.001 443.515 193.229 370 271.999 370 c 0
 289.999 370 327.628 373.594 352.072 412.562 c 0xe8
149 304.687 m 0
 122.409 274.312 117 229.646 117 187.27 c 0
 117 99.8691 175 16 255 16 c 0
 300 16 338 30.125 358 64.5557 c 0
 374 91.9238 378 134.3 378 168.73 c 0xf2
 378 252.6 302.139 340 217.139 340 c 0
 201.139 340 175.348 334.783 149 304.687 c 0
EndSplineSet
Validated: 33
EndChar
StartChar: u1F726
Encoding: 128806 128806 3372
Width: 390
VWidth: -273
Flags: W
HStem: -5 21G<174.499 181.999> 78 50<43.7348 165.498 225.5 346.62> 197 225<118.243 271.643> 226 227<129.069 270.292> 422 19.4375<129.812 165.499 225.499 246.879> 512 50<43.7348 165.499 225.499 346.62> 635 20G<208.499 214.999>
VStem: 39 69.999<262.99 383.909> 165.499 60<-1.15825 77.9985 128.001 204.779 441.459 511.999 562.001 648.038> 281.999 69.999<262.174 385.119>
CounterMasks: 1 01c0
LayerCount: 3
Fore
SplineSet
188.345 422 m 0xe7c0
 129.812 422 108.999 377 108.999 331 c 0
 108.999 276 145.42 226 202.653 226 c 0xd7c0
 259.887 226 281.999 270 281.999 318 c 0
 281.999 370 246.879 422 188.345 422 c 0xe7c0
202.146 453 m 0
 280.697 453 351.998 398 351.998 333 c 0
 351.998 263 296.407 197 187.644 197 c 0xe7c0
 106.675 197 39 245 39 317 c 0
 39 391 112.718 453 202.146 453 c 0
225.499 210.152 m 1
 225.499 134 l 2
 225.499 129 225.499 128 227.499 128 c 0
 295.499 128 269.499 128 337.499 128 c 0
 343.896 128 350.499 124 350.499 118 c 0
 350.499 101 339.235 78 319.499 78 c 2
 229.499 78 l 2
 226.499 78 225.499 77 225.499 74 c 2
 225.499 19 l 2
 225.499 -1.92969 186.499 -5 177.499 -5 c 0
 171.499 -5 165.499 1.80859 165.499 9 c 2
 165.499 73 l 2
 165.499 76 164.499 78 161.499 78 c 2
 54.499 78 l 2
 47.3076 78 40.499 84 40.499 90 c 0
 40.499 99 46.9707 128 64.499 128 c 2
 158.499 128 l 2
 164.499 128 165.499 130 165.499 136 c 2
 165.499 204 l 2
 165.499 204.779 165.551 205.542 165.651 206.29 c 1
 59.1768 211.757 343.369 231.22 225.499 210.152 c 1
165.499 441.438 m 1xcfc0
 165.499 507 l 2
 165.499 510 164.499 512 161.499 512 c 2
 54.499 512 l 2
 47.3076 512 40.499 518 40.499 524 c 0
 40.499 533 46.9707 562 64.499 562 c 2
 158.499 562 l 2
 164.499 562 165.499 564 165.499 570 c 2
 165.499 624 l 2
 165.499 645.634 205.499 655 211.499 655 c 0
 218.499 655 225.499 649.451 225.499 642 c 2
 225.499 568 l 2
 225.499 563 225.499 562 227.499 562 c 0
 295.499 562 269.499 562 337.499 562 c 0
 343.896 562 350.499 558 350.499 552 c 0
 350.499 535 339.235 512 319.499 512 c 2
 229.499 512 l 2
 226.499 512 225.499 511 225.499 508 c 2
 225.499 442.097 l 1
 327.413 428.351 57.9941 423.818 165.499 441.438 c 1xcfc0
EndSplineSet
Validated: 37
EndChar
StartChar: u1F748
Encoding: 128840 128840 3369
Width: 879
VWidth: 0
Flags: W
HStem: -21 46<769.627 879.254> -5 29<185.692 261.52 406.775 475.308> 604 38<106.512 292.507 609.074 769.53> 612 30<391.75 519.284>
VStem: 296 80<47.5377 302.04 331.254 600.344> 579 90<407.125 564.195> 785 35<517.175 586.637>
LayerCount: 3
Fore
SplineSet
579 469.551 m 0x1e
 579 546.473 557 612 444 612 c 0
 389 612 381 589.208 380 560.718 c 0
 377 491.393 376 438.211 376 362.238 c 0
 376 330.899 396 329 429 329 c 0
 521 329 579 396.426 579 469.551 c 0x1e
609.074 604 m 1x6e
 648.496 577.888 669 538.277 669 485.294 c 0
 669 399.422 606 351.716 551 325 c 0
 546 323.092 547 318 551 312 c 0
 613 218 659.861 142.962 754 58 c 0
 788.639 26.7383 822 25 869 25 c 0
 879 25 884 22 884 14 c 0
 884 -15 828 -21 803 -21 c 0xae
 746 -21 700 -10 665 33 c 0
 616 93 582 129 513 241 c 0
 502 259 490.25 269.875 470 280 c 0
 441.395 294.303 409 300 391 302 c 0
 380 303 376 294 376 282 c 2
 376 110 l 2
 376 67 393 33 443 24 c 0
 466 20 476 15 476 6 c 0
 476 -2 464 -5 447 -5 c 0
 393 -5 383.32 1 345 1 c 0
 295.4 1 268 -5 214 -5 c 0
 197 -5 185 -2 185 6 c 0
 185 15 195 20 218 24 c 0
 268 33 296 54 296 102 c 2
 296 557 l 2
 296 575 294 597 278 600 c 0
 259 604 238 604 204 604 c 2
 157 604 l 2
 125 604 89 591 75 565 c 0
 69 554 49 527 34 527 c 0
 29 527 27 533 27 540 c 0
 27 546 29 554 32 560 c 0
 50 598 57 629 63 671 c 0
 66 693 75 694 80 694 c 0
 85 694 99 673 105 662 c 0
 113 648 147 642 175 642 c 2
 722 642 l 2
 751 642 770 649 780 656 c 0
 800 670 815 692 830 692 c 0
 834 692 837 679 837 669 c 0
 837 666 836 662 836 660 c 0
 827 623 820 587 820 561 c 0
 820 557 820 553 820 549 c 0
 820 537 814 517 804 517 c 0
 794 517 790 532 785 558 c 0
 780 586 757 604 693 604 c 2
 609.074 604 l 1x6e
EndSplineSet
Validated: 1
EndChar
StartChar: u1F756
Encoding: 128854 128854 3378
Width: 644
VWidth: 0
Flags: W
HStem: -5 29<175.692 248.247 404.521 477.308> 543 38<249.906 405.795> 616 48<93.9511 196.049 447.951 550.049>
VStem: 25 47<489.824 593.328> 218 47<489.893 593.328> 286 80<107.982 186.241> 379 47<489.933 593.328> 572 47<490.462 593.391>
LayerCount: 3
Fore
SplineSet
246 581 m 1
 407 581 l 1
 436 581 402 543 398 543 c 0
 346 543 290 543 256 543 c 1
 256 543 218 581 246 581 c 1
499 664 m 0
 562 664 619 608 619 544 c 0
 619 487.301 574.263 435.171 520.249 423.331 c 0
 513.295 421.807 527.951 425.061 504.945 420.061 c 0
 469.93 413.061 450.203 381.519 433.93 345.061 c 2
 379 222 l 2
 363.104 186.387 366 128 366 128 c 1
 366 83 366 108 366 108 c 2
 366 63 395 33 445 24 c 0
 468 20 478 15 478 6 c 0
 478 -2 466 -5 449 -5 c 0
 395 -5 377.71 1.62686 332 2 c 24
 282.044 2.4082 258 -3 204 -3 c 0
 187 -3 175 -2 175 6 c 0
 175 15 185 20 208 24 c 0
 258 33 286 60 286 108 c 3
 286 138 280.027 153.013 274 166 c 2
 198.854 327.928 l 2
 174.63 380.128 156.444 414.854 120.08 424.201 c 0
 67.7256 437.679 25 491.59 25 547 c 0
 25 611 82 664 145 664 c 0
 208 664 265 611 265 547 c 0
 265 520.56 255.549 494.298 239.537 472.895 c 0
 236.68 469.075 234.856 464.174 234.856 457.711 c 0
 234.856 440.711 250.786 414.677 268.856 377.711 c 2
 322 269 l 2
 331.054 250.479 333 240 338 240 c 0
 343 240 349.151 248.933 358 269 c 2
 419.257 407.916 l 2
 421.43 412.844 426.257 427.916 426.257 433.916 c 0
 426.257 444.27 421.721 453.177 414.812 460.599 c 0
 393.002 484.028 379 515.27 379 547 c 0
 379 611 436 664 499 664 c 0
426 542 m 0
 426 502 459 468 499 468 c 0
 539 468 572 502 572 542 c 0
 572 583 539 616 499 616 c 0
 459 616 426 583 426 542 c 0
72 542 m 0
 72 502 105 468 145 468 c 0
 185 468 218 502 218 542 c 0
 218 583 185 616 145 616 c 0
 105 616 72 583 72 542 c 0
EndSplineSet
Validated: 37
EndChar
StartChar: u1F758
Encoding: 128856 128856 3434
Width: 755
VWidth: 0
Flags: WO
HStem: -5 29<246.692 318.801 435.672 506.308> 282 48<200 336.446 423.301 558> 622 31<35.0745 106.701 223.726 296.926 463.074 534.421 653.262 722.926>
VStem: 120 80<330 604.925> 339 80<37.3653 278.328> 558 80<330 605.389>
CounterMasks: 1 1c
LayerCount: 3
Fore
SplineSet
133 282 m 2
 127 282 120 286 120 292 c 2
 120 551 l 2
 120 597 117 613 67 622 c 0
 44 626 34 633 34 642 c 0
 34 650 46 653 63 653 c 0
 117 653 125.812 650 166 650 c 0
 206.188 650 215 653 269 653 c 0
 286 653 298 650 298 642 c 0
 298 633 288 626 265 622 c 0
 215 613 200 590 200 551 c 2
 200 339 l 2
 200 331 208 330 214 330 c 2
 551 330 l 2
 556 330 558 333 558 342 c 2
 558 552 l 2
 558 588 545 613 495 622 c 0
 472 626 462 633 462 642 c 0
 462 650 474 653 491 653 c 0
 545 653 559.914 650 604 650 c 0
 639.51 650 641 653 695 653 c 0
 712 653 724 650 724 642 c 0
 724 633 714 626 691 622 c 0
 641 613 638 590 638 552 c 2
 638 310 l 2
 638 300 629 282 614 282 c 2
 454.002 282 l 2
 423.002 282 421.002 258 420.002 232 c 0
 419.002 207 419.002 173 419.002 138 c 0
 419.002 104 419 100 419 100 c 2
 418.997 51 424 33 474 24 c 0
 497 20 507 15 507 6 c 0
 507 -2 495 -5 478 -5 c 0
 424 -5 416.11 0 379.5 0 c 0
 340.56 0 329 -5 275 -5 c 0
 258 -5 246 -2 246 6 c 0
 246 15 256 20 279 24 c 0
 329 33 339 51 339 99 c 2
 339 235 l 2
 339 253 337 275 321 278 c 0
 302 282 281 282 247 282 c 2
 133 282 l 2
EndSplineSet
EndChar
StartChar: u1F75B
Encoding: 128859 128859 3377
Width: 783
VWidth: -273
Flags: W
HStem: 298.5 50<70.1276 723.49> 382.5 20G<766.498 775.998>
VStem: 728.998 35<223.674 285.877>
LayerCount: 3
Fore
SplineSet
121.998 298.5 m 2
 89.998 298.5 51.7236 288.834 45.4434 269.846 c 0
 41.5088 257.949 26.4375 227.907 11.665 225.303 c 0
 6.74121 224.435 3.72949 229.996 2.51465 236.89 c 0
 1.47266 242.799 2.05273 251.024 3.96582 257.454 c 0
 15.0928 298.003 14.5205 341.565 13.1357 383.969 c 0
 12.2695 406.155 20.959 408.703 25.8838 409.571 c 0
 30.8076 410.439 48.0566 392.039 56.0605 382.398 c 0
 73.9463 360.855 111.998 348.5 139.998 348.5 c 2
 665.998 348.5 l 2
 694.998 348.5 713.998 359.5 723.998 366.5 c 0
 743.998 380.5 758.998 402.5 773.998 402.5 c 0
 777.998 402.5 780.998 389.5 780.998 379.5 c 0
 780.998 376.5 779.998 372.5 779.998 370.5 c 0
 770.998 333.5 763.998 293.5 763.998 267.5 c 0
 763.998 263.5 763.998 259.5 763.998 255.5 c 0
 763.998 243.5 757.998 223.5 747.998 223.5 c 0
 737.998 223.5 733.642 238.43 728.998 264.5 c 0
 725.491 284.19 700.998 298.5 636.998 298.5 c 2
 121.998 298.5 l 2
EndSplineSet
Refer: 1260 -1 N 1 0 0 1 513 0 2
Refer: 1260 -1 N 1 0 0 1 257 0 2
Refer: 1260 -1 N 1 0 0 1 0 0 2
Validated: 33
EndChar
StartChar: Region.GB_SCT
Encoding: 1115243 -1 3432
Width: 1284
Flags: W
LayerCount: 3
Fore
SplineSet
1168.85 529.471 m 1
 1168.85 120.52 l 1
 759.898 324.996 l 1
 1168.85 529.471 l 1
642.115 266.105 m 1
 1051.06 61.6309 l 1
 233.166 61.6309 l 1
 642.115 266.105 l 1
524.333 324.996 m 1
 115.386 120.52 l 1
 115.386 529.471 l 1
 524.333 324.996 l 1
642.115 383.888 m 1
 233.166 588.363 l 1
 1051.06 588.363 l 1
 642.115 383.888 l 1
EndSplineSet
Ligature2: "liga_regionals subtable" u1F1EC u1F1E7 hyphen u1F1F8 u1F1E8 u1F1F9
EndChar
StartChar: o.subs
Encoding: 1114278 -1 1274
Width: 309
VWidth: -273
Flags: HMW
LayerCount: 3
Fore
SplineSet
149 220 m 4
 104 220 88 175 88 129 c 4
 88 74 116 24 160 24 c 4
 204 24 221 68 221 116 c 4
 221 168 194 220 149 220 c 4
160 251 m 4
 225 251 284 196 284 131 c 4
 284 61 238 -5 148 -5 c 4
 81 -5 25 43 25 115 c 4
 25 189 86 251 160 251 c 4
EndSplineSet
Validated: 1
EndChar
StartChar: u1F1E9_u1F1F0
Encoding: 1115242 -1 3431
Width: 1087
VWidth: 0
Flags: W
HStem: 0.990234 277.723<115.39 393.112 485.687 971.702> 371.287 277.724<115.39 393.112 485.687 971.702>
VStem: 115.39 277.723<0.990234 278.713 371.287 649.011> 485.687 486.016<0.990234 278.713 371.287 649.011>
LayerCount: 3
Fore
SplineSet
393.112 278.713 m 1
 393.112 0.990234 l 1
 115.39 0.990234 l 1
 115.39 278.713 l 1
 393.112 278.713 l 1
393.112 371.287 m 1
 115.39 371.287 l 1
 115.39 649.011 l 1
 393.112 649.011 l 1
 393.112 371.287 l 1
485.687 278.713 m 1
 971.702 278.713 l 1
 971.702 0.990234 l 1
 485.687 0.990234 l 1
 485.687 278.713 l 1
485.687 371.287 m 1
 485.687 649.011 l 1
 971.702 649.011 l 1
 971.702 371.287 l 1
 485.687 371.287 l 1
EndSplineSet
Ligature2: "liga_regionals subtable" u1F1E9 u1F1F0
EndChar
StartChar: u1F1EC_u1F1E7
Encoding: 1115169 -1 2980
Width: 1284
Flags: HMW
LayerCount: 3
Fore
SplineSet
115.386 272.324 m 1
 115.386 377.67 l 1
 589.443 377.67 l 1
 589.443 588.363 l 1
 694.79 588.363 l 1
 694.79 377.67 l 1
 1168.85 377.67 l 1
 1168.85 272.324 l 1
 694.79 272.324 l 1
 694.79 61.6309 l 1
 589.443 61.6309 l 1
 589.443 272.324 l 1
 115.386 272.324 l 1
EndSplineSet
Ligature2: "liga_regionals subtable" u1F1EC u1F1E7
LCarets2: 1 642 
EndChar
StartChar: u1F1F2_u1F1E6
Encoding: 1115241 -1 3425
Width: 1143
VWidth: 0
Flags: W
HStem: 20.8926 33.4414<148.831 994.278> 77.9082 134.784<459.24 518.382 619.592 683.788> 393.73 20G<482.82 500.309 513.71 635.415 648.707 660.208 660.208 660.208> 402.42 21G<648.707 660.208> 434.554 20G<556.597 591.101> 437.311 124.648<459.24 523.514 624.73 683.788> 585.534 43.5781<148.831 994.278>
VStem: 115.39 33.4414<54.334 585.534> 994.278 33.4414<54.334 585.534>
LayerCount: 3
Fore
SplineSet
115.39 20.8926 m 1xc380
 115.39 629.112 l 1
 1027.72 629.112 l 1
 1027.72 20.8926 l 1
 115.39 20.8926 l 1xc380
172.406 77.9082 m 1
 172.406 561.959 l 1
 970.703 561.959 l 1xc780
 970.703 77.9082 l 1
 172.406 77.9082 l 1
148.831 54.334 m 1
 994.278 54.334 l 1
 994.278 585.534 l 1
 148.831 585.534 l 1
 148.831 54.334 l 1
648.707 413.73 m 1xe380
 660.208 413.73 l 1xe380
 660.208 402.42 l 1xd380
 648.707 413.73 l 1xe380
683.788 379.231 m 1
 683.788 437.311 l 1
 624.73 437.311 l 1
 573.293 487.895 l 1
 523.514 437.311 l 1
 459.24 437.311 l 1xc780
 459.24 371.997 l 1
 408.658 320.598 l 1
 459.24 270.854 l 1
 459.24 212.692 l 1
 518.382 212.692 l 1
 569.815 162.11 l 1
 619.592 212.692 l 1
 683.788 212.692 l 1
 683.788 277.926 l 1
 734.451 329.408 l 1
 683.788 379.231 l 1
660.208 253.965 m 1
 660.208 236.272 l 1
 642.797 236.272 l 1
 660.208 253.965 l 1
494.404 236.272 m 1
 482.82 236.272 l 1
 482.82 247.664 l 1
 494.404 236.272 l 1
500.309 413.73 m 1xe380
 482.82 395.959 l 1
 482.82 413.73 l 1
 500.309 413.73 l 1xe380
533.392 413.73 m 1
 615.078 413.73 l 1
 660.208 369.349 l 1
 660.208 287.582 l 1
 609.714 236.272 l 1
 528.033 236.272 l 1
 482.82 280.736 l 1
 482.82 362.341 l 1
 533.392 413.73 l 1
459.24 338.38 m 1
 459.24 303.926 l 1
 442.01 320.871 l 1
 459.24 338.38 l 1
556.597 437.311 m 1xc780
 573.566 454.554 l 1xcb80
 591.101 437.311 l 1
 556.597 437.311 l 1xc780
552.011 212.692 m 1
 586.509 212.692 l 1
 569.542 195.451 l 1
 552.011 212.692 l 1
683.788 311.543 m 1
 683.788 346.159 l 1
 701.1 329.135 l 1
 683.788 311.543 l 1
EndSplineSet
LCarets2: 1 572 
Ligature2: "liga_regionals subtable" u1F1F2 u1F1E6
EndChar
StartChar: u1F1F3_u1F1F1
Encoding: 1115244 -1 3433
Width: 1143
VWidth: 2048
Flags: W
HStem: 19.9258 202.742<115.39 1027.72> 425.408 202.741<115.39 1027.72>
LayerCount: 3
Fore
SplineSet
115.39 19.9258 m 1
 115.39 222.668 l 1
 1027.72 222.668 l 1
 1027.72 19.9258 l 1
 115.39 19.9258 l 1
115.39 425.408 m 1
 115.39 628.149 l 1
 1027.72 628.149 l 1
 1027.72 425.408 l 1
 115.39 425.408 l 1
EndSplineSet
LCarets2: 1 571 
Ligature2: "liga_regionals subtable" u1F1F3 u1F1F1
EndChar
